<?xml version="1.0" encoding="utf-8"?>
<svg version="1.1" xmlns="http://www.w3.org/2000/svg" xmlns:xlink="http://www.w3.org/1999/xlink" x="0px" y="0px"
	 viewBox="0 0 512 512" style="enable-background:new 0 0 512 512;" xml:space="preserve">
<style type="text/css">
	.st0{fill:url(#SVGID_1_);}
	.st1{fill:url(#SVGID_2_);}
	.st2{fill:url(#SVGID_3_);}
	.st3{opacity:0.3;}
</style>
<g id="Layer_2">
</g>
<g id="Layer_1">
	<g>
		<linearGradient id="SVGID_1_" gradientUnits="userSpaceOnUse" x1="140.3711" y1="581.7923" x2="289.0387" y2="371.6069">
			<stop  offset="0" style="stop-color:#FF82FD"/>
			<stop  offset="1" style="stop-color:#4A0E88"/>
		</linearGradient>
		<path class="st0" d="M417.1,478.9c-3.7,0.9-7.5,1.4-11.5,1.4H106.5c-28.2,0-49.9-25-46-52.9l3.7-26.1h203.3L417.1,478.9z"/>
		<g>
			<linearGradient id="SVGID_2_" gradientUnits="userSpaceOnUse" x1="348.5532" y1="53.3822" x2="215.2642" y2="276.3851">
				<stop  offset="0" style="stop-color:#FF82FD"/>
				<stop  offset="1" style="stop-color:#4A0E88"/>
			</linearGradient>
			<path class="st1" d="M417.1,182.6c-3.2-22.9-22.8-40-46-40h-12.5l-3.5-24.7c-7-49.4-49.2-86.2-99.2-86.2c-25,0-48,9.2-65.7,24.6
				c-17.7,15.4-30,36.9-33.5,61.6l-3.5,24.7h-12.5c-9.2,0-17.9,2.7-25.2,7.4c-1.3,0.8-2.6,1.7-3.8,2.7c-5.7,4.5-10.2,10.3-13.3,17
				l116.1,60.2h209L417.1,182.6z M198.9,142.6l2.6-18.5c3.8-27,27.2-47.4,54.5-47.4c27.3,0,50.7,20.4,54.5,47.4l2.6,18.5H198.9z"/>
		</g>
		<linearGradient id="SVGID_3_" gradientUnits="userSpaceOnUse" x1="67.4341" y1="214.6885" x2="481.8267" y2="453.071">
			<stop  offset="0" style="stop-color:#FFD824"/>
			<stop  offset="1" style="stop-color:#FF4102"/>
		</linearGradient>
		<path class="st2" d="M417.1,478.9l-149.6-77.6L201.2,367L77.9,303.1l16.9-120.5c0.6-4.6,1.9-8.9,3.8-12.9l116.1,60.2l88.4,45.9
			l137.1,71.1l11.3,80.6C454.9,451.4,439.4,473.2,417.1,478.9z"/>
		<path class="st3" d="M417.1,478.9c-3.7,0.9-7.5,1.4-11.5,1.4h-55.7c-12-28.6-43.8-50.8-82.4-79L417.1,478.9z"/>
		<path class="st3" d="M214.7,229.9L98.6,169.7c3.1-6.7,7.7-12.5,13.3-17c1.2-1,2.5-1.9,3.8-2.7
			C129.8,175.6,182.4,209.3,214.7,229.9z"/>
	</g>
</g>
</svg>
